PathFileType	4	(X/Y/Z)	/Users/itak/Documents/Research/Walk-IL/dataset/trc/00289_00010.trc
DataRate	CameraRate	NumFrames	NumMarkers	Units	OrigDataRate	OrigDataStartFrame	OrigNumFrames
100.000000	100.000000	4	53	mm	100.000000	165	662
Frame#	Time	RPSI			LPSI			L3			STRN			T10			C7			CLAV			RBAK			LBAK			LSHO			LUPA			LAEL			LAOL			LWTS			LWPS			LFRA			LIFD			LHPS			LHTS			RSHO			RUPA			RAEL			RAOL			RWTS			RWPS			RFRA			RIFD			RHTS			RHPS			RBHD			LFHD			RFHD			LBHD			LHIP			RHIP			RASI			LASI			LKNE			LTHI			LANK			LTIP			LTOE			LMT1			LMT5			LHEE			RKNE			RTHI			RANK			RTIP			RTOE			RMT1			RMT5			RHEE			
		X1	Y1	Z1	X2	Y2	Z2	X3	Y3	Z3	X4	Y4	Z4	X5	Y5	Z5	X6	Y6	Z6	X7	Y7	Z7	X8	Y8	Z8	X9	Y9	Z9	X10	Y10	Z10	X11	Y11	Z11	X12	Y12	Z12	X13	Y13	Z13	X14	Y14	Z14	X15	Y15	Z15	X16	Y16	Z16	X17	Y17	Z17	X18	Y18	Z18	X19	Y19	Z19	X20	Y20	Z20	X21	Y21	Z21	X22	Y22	Z22	X23	Y23	Z23	X24	Y24	Z24	X25	Y25	Z25	X26	Y26	Z26	X27	Y27	Z27	X28	Y28	Z28	X29	Y29	Z29	X30	Y30	Z30	X31	Y31	Z31	X32	Y32	Z32	X33	Y33	Z33	X34	Y34	Z34	X35	Y35	Z35	X36	Y36	Z36	X37	Y37	Z37	X38	Y38	Z38	X39	Y39	Z39	X40	Y40	Z40	X41	Y41	Z41	X42	Y42	Z42	X43	Y43	Z43	X44	Y44	Z44	X45	Y45	Z45	X46	Y46	Z46	X47	Y47	Z47	X48	Y48	Z48	X49	Y49	Z49	X50	Y50	Z50	X51	Y51	Z51	X52	Y52	Z52	X53	Y53	Z53	

166	1.65	-487.9144897460938	969.2708740234375	764.3773803710938	-646.8046875	961.0348510742188	834.5315551757812	-565.9397583007812	1036.614501953125	781.636962890625	-692.6060180664062	1209.747314453125	572.5858764648438	-551.2340087890625	1150.665771484375	794.3031005859375	-590.0266723632812	1396.14501953125	765.195068359375	-667.1021728515625	1310.211303710938	628.7116088867188	-494.6411437988281	1260.791259765625	770.48974609375	-668.4620971679688	1357.8212890625	833.8303833007812	-763.7855834960938	1361.640502929688	785.933349609375	-792.745361328125	1252.863159179688	870.7598876953125	-770.6839599609375	1058.932250976562	920.8805541992188	-684.6932373046875	1058.207153320312	918.9109497070312	-744.229248046875	817.8700561523438	915.3316650390625	-763.1849975585938	827.2644653320312	982.2057495117188	-768.0532836914062	958.30029296875	952.7033081054688	-700.8131713867188	652.0730590820312	988.38232421875	-740.5865478515625	747.4301147460938	1012.569580078125	-744.4562377929688	720.089111328125	952.0196533203125	-489.3949584960938	1373.763427734375	625.4622192382812	-428.3993225097656	1314.933959960938	595.9464111328125	-383.59912109375	1047.9169921875	565.3916625976562	-429.6573486328125	1036.026977539062	646.95166015625	-563.630615234375	909.5772705078125	470.6016845703125	-488.3327026367188	876.6265869140625	445.7663879394531	-409.0840759277344	996.45947265625	524.5835571289062	-647.4512329101562	758.9049072265625	397.1016235351562	-616.6080932617188	828.0993041992188	400.0965576171875	-553.3311767578125	795.9705810546875	396.6399536132812	-535.3695678710938	1547.081176757812	709.284912109375	-708.471435546875	1591.33935546875	593.4650268554688	-622.9725341796875	1578.87451171875	559.4779663085938	-670.739013671875	1557.06591796875	762.9093017578125	-766.7323608398438	917.8316040039062	803.224609375	-431.1802368164062	914.3502197265625	632.6429443359375	-542.8569946289062	916.3049926757812	548.5924072265625	-770.9808959960938	927.2305297851562	656.9596557617188	-841.0149536132812	501.5162048339844	574.4554443359375	-833.4618530273438	625.5130615234375	645.01904296875	-877.7921752929688	42.93375396728516	568.2564086914062	-870.9526977539062	270.6975708007812	567.373046875	-839.5418090820312	67.37444305419922	361.1360168457031	-792.4171142578125	48.07472991943359	423.1240234375	-901.3668823242188	47.50325012207031	447.6113891601562	-814.4005737304688	38.51264953613281	607.54296875	-476.4443969726562	447.9264221191406	713.1527099609375	-462.9288940429688	696.0067749023438	615.7081909179688	-366.7656860351562	91.09906005859375	966.4320678710938	-475.2450866699219	329.3724975585938	767.7194213867188	-547.833740234375	44.20228958129883	913.4133911132812	-522.9656372070312	51.10601806640625	973.03271484375	-433.30908203125	46.1456413269043	895.9932250976562	-356.2518310546875	117.6043395996094	1032.706787109375	
167	1.66	-494.0440368652344	970.1685791015625	754.3414916992188	-653.1658325195312	963.5955810546875	824.2039184570312	-572.1710205078125	1038.005493164062	771.4360961914062	-698.4909057617188	1211.915283203125	562.87060546875	-557.843994140625	1151.982421875	784.9844360351562	-597.0851440429688	1397.368774414062	757.1804809570312	-673.37646484375	1312.270141601562	619.6240234375	-501.514892578125	1262.39111328125	762.3046264648438	-676.1282348632812	1358.552001953125	824.96337890625	-771.0028076171875	1362.569458007812	776.586181640625	-800.7739868164062	1253.444458007812	860.525390625	-780.0516967773438	1059.088623046875	909.9654541015625	-694.1242065429688	1058.040649414062	908.5150146484375	-755.07177734375	818.0704956054688	903.5069580078125	-774.49951171875	827.3628540039062	970.2421875	-778.3616333007812	958.5406494140625	941.1975708007812	-713.0957641601562	651.862060546875	976.7235107421875	-752.6124877929688	747.4122924804688	1000.615539550781	-756.0415649414062	720.0056762695312	939.935791015625	-495.6766357421875	1376.34765625	618.0887451171875	-434.0650024414062	1317.91552734375	588.9766845703125	-388.4057922363281	1050.74072265625	560.7869873046875	-436.2423095703125	1039.412353515625	641.3197631835938	-564.55322265625	906.9146728515625	465.4136352539062	-488.010498046875	875.06640625	442.5857238769531	-412.5318908691406	998.0108642578125	520.1546020507812	-643.4518432617188	752.9734497070312	393.3069763183594	-614.2986450195312	822.9165649414062	395.5646057128906	-550.2785034179688	792.1839599609375	393.8675537109375	-542.2299194335938	1548.481201171875	702.9103393554688	-713.6047973632812	1593.363037109375	584.8353271484375	-627.691650390625	1580.764526367188	551.9915771484375	-678.3623657226562	1558.694702148438	754.6867065429688	-773.3336181640625	921.1985473632812	792.840087890625	-437.1819458007812	914.1828002929688	623.1616821289062	-548.9946899414062	916.90576171875	539.1072998046875	-777.4968872070312	929.7098999023438	646.5606079101562	-846.1242065429688	502.0437927246094	566.8473510742188	-839.788818359375	627.1283569335938	636.2581176757812	-878.7615966796875	42.48382186889648	567.973388671875	-874.320068359375	270.6286315917969	562.9119873046875	-840.7638549804688	64.04488372802734	360.15234375	-793.427490234375	46.8675422668457	422.5959777832031	-902.5098266601562	45.06938934326172	447.1720275878906	-815.234619140625	39.28111267089844	607.2249145507812	-483.3479309082031	447.6255493164062	701.9566650390625	-469.895751953125	695.89599609375	605.94287109375	-370.5781860351562	97.63420867919922	964.2606811523438	-479.6795959472656	330.3054504394531	758.2160034179688	-548.00634765625	44.07392120361328	913.2642822265625	-524.790771484375	52.91793441772461	971.3206176757812	-434.2973937988281	46.56933212280273	895.5877685546875	-362.6123657226562	127.4961471557617	1029.197143554688	
168	1.67	-500.1572875976562	971.1808471679688	744.584716796875	-659.6286010742188	966.2155151367188	813.9330444335938	-578.3804321289062	1039.615356445312	761.438232421875	-704.2025756835938	1214.235961914062	553.0245361328125	-564.3834228515625	1153.523559570312	775.7269287109375	-604.1598510742188	1398.731567382812	749.0572509765625	-679.5203857421875	1314.48876953125	610.43408203125	-508.3306274414062	1264.191528320312	754.1066284179688	-683.8460693359375	1359.453735351562	815.904052734375	-778.210693359375	1363.686401367188	766.97265625	-808.8991088867188	1254.279907226562	849.9908447265625	-789.6112060546875	1059.515869140625	898.784423828125	-703.717041015625	1058.122924804688	897.9395141601562	-766.1859741210938	818.5017700195312	891.0435791015625	-786.1815185546875	827.5830078125	957.6351928710938	-788.89990234375	958.9573364257812	929.267578125	-725.8125610351562	651.6841430664062	964.10595703125	-765.0751342773438	747.4347534179688	987.8685913085938	-768.0339965820312	720.1044921875	927.0057373046875	-501.9150085449219	1379.126831054688	610.701416015625	-439.6777648925781	1321.152709960938	581.93798828125	-393.1502990722656	1053.890380859375	555.8771362304688	-442.6490783691406	1043.065673828125	635.431396484375	-565.133056640625	904.2027587890625	460.3759155273438	-487.3691711425781	873.6467895507812	439.5207824707031	-415.8509216308594	999.8446044921875	515.551513671875	-638.7340087890625	746.7874755859375	390.1661682128906	-611.4680786132812	817.4989013671875	391.4830932617188	-546.6799926757812	788.3973999023438	391.4994506835938	-549.06298828125	1549.951538085938	696.5667724609375	-718.5926513671875	1595.538208007812	576.1637573242188	-632.273681640625	1582.820434570312	544.5279541015625	-685.9937744140625	1560.367431640625	746.393798828125	-779.9342651367188	924.5361328125	782.4510498046875	-443.0477905273438	914.2418823242188	613.9588623046875	-554.9403076171875	917.81982421875	529.740234375	-783.79638671875	932.2245483398438	636.1476440429688	-851.0121459960938	502.2196960449219	560.1932373046875	-845.8682861328125	628.4573974609375	628.196533203125	-879.6736450195312	42.03985595703125	567.8131103515625	-877.4615478515625	270.381591796875	559.2538452148438	-841.9420166015625	61.32374572753906	359.4304504394531	-794.4290161132812	46.04007339477539	422.1991271972656	-903.6469116210938	43.11906814575195	446.9359436035156	-815.9879150390625	39.85769653320312	606.975341796875	-490.1062316894531	447.3479309082031	689.6796264648438	-476.6871337890625	696.0123901367188	595.9246826171875	-375.0074768066406	104.7210540771484	961.553466796875	-483.9404907226562	331.5237731933594	747.7210693359375	-548.302001953125	43.90293121337891	912.7747802734375	-527.087890625	55.26191711425781	969.0543212890625	-435.3970947265625	47.15557098388672	895.151123046875	-370.033203125	138.0635070800781	1024.739990234375	
169	1.68	-506.2754211425781	972.2860107421875	735.2440795898438	-666.24462890625	968.870849609375	803.7943725585938	-584.6231079101562	1041.42626953125	751.7412719726562	-709.6873779296875	1216.614135742188	543.0679321289062	-570.8970947265625	1155.218627929688	766.5780029296875	-611.2476196289062	1400.18310546875	740.8389892578125	-685.5113525390625	1316.788330078125	601.1472778320312	-515.1060180664062	1266.11376953125	745.9452514648438	-691.6245727539062	1360.481323242188	806.6613159179688	-785.401611328125	1364.92724609375	757.0715942382812	-817.1299438476562	1255.300048828125	839.1514892578125	-799.3556518554688	1060.1640625	887.333984375	-713.4667358398438	1058.393188476562	887.2046508789062	-777.5464477539062	819.1175537109375	877.977783203125	-798.1773681640625	827.8802490234375	944.4320068359375	-799.6395874023438	959.4916381835938	916.956787109375	-738.96728515625	651.5004272460938	950.5164184570312	-777.9201049804688	747.4458618164062	974.3514404296875	-780.4443969726562	720.39306640625	913.2793579101562	-508.0666809082031	1381.997314453125	603.3302612304688	-445.1934814453125	1324.53076171875	574.8766479492188	-397.7893981933594	1057.254638671875	550.5966796875	-448.7413940429688	1046.858642578125	629.292236328125	-565.3882446289062	901.4594116210938	455.4820861816406	-486.4510498046875	872.3731079101562	436.5099182128906	-419.0201416015625	1001.878173828125	510.719482421875	-633.392578125	740.4560546875	387.7239379882812	-608.1875610351562	811.9221801757812	387.8811645507812	-542.6287841796875	784.66455078125	389.5062255859375	-555.8618774414062	1551.45849609375	690.2406616210938	-723.4342651367188	1597.798217773438	567.4488525390625	-636.7120971679688	1584.988891601562	537.0829467773438	-693.6070556640625	1562.02587890625	738.0230712890625	-786.5496826171875	927.811279296875	772.0853271484375	-448.771240234375	914.5160522460938	605.1863403320312	-560.61328125	919.0206298828125	520.5968017578125	-789.8247680664062	934.6575317382812	625.7489013671875	-855.6499633789062	502.1192016601562	554.39111328125	-851.6366577148438	629.5137329101562	620.7960815429688	-880.490234375	41.63498687744141	567.726318359375	-880.3390502929688	270.0072631835938	556.2691040039062	-842.8988037109375	59.10393524169922	358.9024353027344	-795.28271484375	45.45910263061523	421.9247436523438	-904.62255859375	41.61454772949219	446.8209228515625	-816.6405639648438	40.26888656616211	606.8043823242188	-496.6747436523438	447.1112976074219	676.351806640625	-483.2050170898438	696.3502807617188	585.7379760742188	-380.0503234863281	112.3366317749023	958.0926513671875	-488.0881042480469	333.0301513671875	736.2155151367188	-548.793212890625	43.69137191772461	911.694580078125	-529.9109497070312	58.18305969238281	966.0316772460938	-436.6156005859375	48.08406829833984	894.5433349609375	-378.3763427734375	149.19482421875	1019.118347167969	
